<svg id="svg" version="1.1" width="400" height="400" viewBox="0 0 400 400" xmlns="http://www.w3.org/2000/svg" xmlns:xlink="http://www.w3.org/1999/xlink" ><g id="svgg"><path id="path0" d="M144.538 46.180 C 143.354 46.695,142.435 48.168,142.965 48.698 C 143.244 48.977,145.103 47.317,145.651 46.300 C 146.095 45.477,146.143 45.482,144.538 46.180 M310.760 46.320 C 311.326 47.369,313.165 48.968,313.463 48.670 C 313.996 48.137,312.833 46.490,311.628 46.070 C 310.521 45.684,310.431 45.710,310.760 46.320 M133.680 52.080 C 133.416 52.344,133.200 52.738,133.200 52.956 C 133.200 53.175,133.425 53.061,133.700 52.705 C 133.975 52.348,134.650 51.978,135.200 51.883 L 136.200 51.709 135.180 51.654 C 134.619 51.625,133.944 51.816,133.680 52.080 M321.271 51.884 C 322.542 52.078,323.074 52.643,323.262 54.000 C 323.364 54.740,323.660 55.017,324.400 55.066 C 325.281 55.123,325.293 55.108,324.500 54.938 C 323.876 54.804,323.600 54.455,323.600 53.801 C 323.600 52.528,322.576 51.587,321.271 51.660 L 320.200 51.720 321.271 51.884 M125.113 65.500 C 124.500 66.203,123.600 67.776,123.600 68.144 C 123.600 68.253,124.320 67.695,125.200 66.905 C 126.080 66.115,126.800 65.318,126.800 65.134 C 126.800 64.547,125.745 64.776,125.113 65.500 M329.600 65.130 C 329.600 65.583,331.242 67.025,332.105 67.330 C 332.756 67.560,332.765 67.493,332.220 66.438 C 331.530 65.104,329.600 64.141,329.600 65.130 M158.500 68.385 C 158.005 69.013,157.600 69.645,157.600 69.790 C 157.600 69.935,158.005 69.934,158.500 69.787 C 159.507 69.488,160.400 68.518,160.400 67.724 C 160.400 66.848,159.452 67.178,158.500 68.385 M296.000 67.626 C 296.000 69.010,299.792 71.141,300.678 70.255 C 300.818 70.115,300.610 70.000,300.214 70.000 C 299.818 70.000,298.900 69.370,298.174 68.600 C 296.857 67.203,296.000 66.819,296.000 67.626 M146.699 80.320 C 145.017 81.978,144.862 82.400,145.938 82.400 C 146.866 82.400,147.814 81.330,148.154 79.900 C 148.477 78.539,148.516 78.527,146.699 80.320 M308.400 80.538 C 308.400 81.607,308.947 82.174,310.300 82.505 C 311.503 82.799,311.444 82.617,309.800 80.973 C 308.441 79.614,308.400 79.602,308.400 80.538 M94.900 139.476 C 95.285 139.576,95.915 139.576,96.300 139.476 C 96.685 139.375,96.370 139.293,95.600 139.293 C 94.830 139.293,94.515 139.375,94.900 139.476 M87.029 140.229 C 86.683 140.574,86.400 141.244,86.400 141.718 L 86.400 142.578 87.013 141.702 C 87.351 141.221,88.021 140.551,88.502 140.213 L 89.378 139.600 88.518 139.600 C 88.044 139.600,87.374 139.883,87.029 140.229 M97.738 140.587 C 97.992 141.130,98.262 141.394,98.338 141.174 C 98.534 140.605,98.095 139.600,97.650 139.600 C 97.441 139.600,97.479 140.035,97.738 140.587 M83.467 142.667 C 83.320 142.813,83.214 143.308,83.232 143.767 C 83.253 144.339,83.330 144.412,83.478 144.000 C 83.596 143.670,83.976 143.175,84.322 142.900 C 84.876 142.461,84.878 142.400,84.343 142.400 C 84.008 142.400,83.613 142.520,83.467 142.667 M100.500 142.832 C 100.885 143.056,101.214 143.726,101.232 144.320 C 101.249 144.914,101.357 145.167,101.471 144.883 C 101.839 143.965,101.219 142.399,100.492 142.412 C 99.841 142.424,99.841 142.448,100.500 142.832 M80.150 146.187 C 80.026 146.510,80.017 147.005,80.131 147.287 C 80.258 147.604,80.349 147.528,80.368 147.087 C 80.386 146.695,80.805 146.211,81.300 146.012 L 82.200 145.651 81.287 145.625 C 80.786 145.611,80.274 145.864,80.150 146.187 M76.938 149.417 C 76.591 150.321,76.902 150.369,77.700 149.533 C 78.292 148.913,78.306 148.800,77.787 148.800 C 77.451 148.800,77.068 149.078,76.938 149.417 M73.632 153.872 C 73.611 154.445,73.291 154.804,72.700 154.918 L 71.800 155.091 72.713 155.146 C 73.660 155.202,74.227 154.403,73.869 153.513 C 73.756 153.231,73.649 153.392,73.632 153.872 M70.432 157.072 C 70.411 157.645,70.091 158.004,69.500 158.118 L 68.600 158.291 69.513 158.346 C 70.460 158.402,71.027 157.603,70.669 156.713 C 70.556 156.431,70.449 156.592,70.432 157.072 M64.811 161.787 C 64.543 162.109,64.417 162.604,64.531 162.887 C 64.658 163.204,64.749 163.128,64.768 162.687 C 64.786 162.295,65.205 161.811,65.700 161.612 C 66.309 161.368,66.390 161.243,65.949 161.225 C 65.591 161.211,65.079 161.464,64.811 161.787 M61.680 164.880 C 61.416 165.144,61.211 165.729,61.225 166.180 C 61.249 166.948,61.274 166.942,61.616 166.091 C 61.817 165.590,62.390 165.017,62.891 164.816 C 63.742 164.474,63.748 164.449,62.980 164.425 C 62.529 164.411,61.944 164.616,61.680 164.880 M59.100 167.476 C 58.715 167.576,58.400 167.836,58.400 168.053 C 58.400 168.270,58.594 168.327,58.831 168.181 C 59.069 168.034,59.744 167.769,60.331 167.591 C 61.496 167.240,60.397 167.137,59.100 167.476 M58.000 169.704 C 58.000 170.055,57.685 170.424,57.300 170.524 C 56.644 170.696,56.645 170.710,57.313 170.754 C 58.036 170.801,58.706 169.773,58.249 169.316 C 58.112 169.179,58.000 169.353,58.000 169.704 M54.800 172.904 C 54.800 173.255,54.485 173.624,54.100 173.724 C 53.444 173.896,53.445 173.910,54.113 173.954 C 54.836 174.001,55.506 172.973,55.049 172.516 C 54.912 172.379,54.800 172.553,54.800 172.904 M49.211 177.387 C 48.943 177.709,48.817 178.204,48.931 178.487 C 49.058 178.804,49.149 178.728,49.168 178.287 C 49.186 177.895,49.605 177.411,50.100 177.212 C 50.709 176.968,50.790 176.843,50.349 176.825 C 49.991 176.811,49.479 177.064,49.211 177.387 M46.080 180.480 C 45.816 180.744,45.611 181.329,45.625 181.780 C 45.649 182.548,45.674 182.542,46.016 181.691 C 46.217 181.190,46.790 180.617,47.291 180.416 C 48.142 180.074,48.148 180.049,47.380 180.025 C 46.929 180.011,46.344 180.216,46.080 180.480 M42.560 184.219 C 42.419 184.779,42.416 185.349,42.552 185.485 C 42.688 185.622,42.800 185.446,42.800 185.095 C 42.800 184.744,43.083 184.174,43.429 183.829 C 43.993 183.264,43.994 183.200,43.436 183.200 C 43.095 183.200,42.700 183.658,42.560 184.219 M40.551 186.393 C 40.085 186.582,39.575 187.244,39.420 187.864 C 39.264 188.484,38.926 189.126,38.668 189.290 C 38.326 189.508,38.340 189.589,38.721 189.594 C 39.007 189.597,39.436 189.041,39.675 188.358 C 39.947 187.576,40.569 186.915,41.354 186.574 C 42.695 185.990,41.960 185.825,40.551 186.393 M36.538 190.217 C 36.191 191.121,36.502 191.169,37.300 190.333 C 37.892 189.713,37.906 189.600,37.387 189.600 C 37.051 189.600,36.668 189.878,36.538 190.217 M36.000 192.000 C 36.000 192.220,35.556 192.400,35.014 192.400 C 33.877 192.400,33.066 193.607,33.320 194.921 C 33.459 195.636,33.501 195.591,33.546 194.680 C 33.588 193.800,33.901 193.433,35.000 192.974 C 36.160 192.490,36.937 191.600,36.200 191.600 C 36.090 191.600,36.000 191.780,36.000 192.000 M263.497 206.891 C 263.360 207.249,262.742 207.618,262.124 207.711 C 261.078 207.868,261.069 207.884,262.000 207.934 C 263.253 208.001,264.152 207.456,263.922 206.766 C 263.793 206.379,263.681 206.412,263.497 206.891 M36.046 208.867 C 35.971 209.953,36.441 210.800,37.119 210.800 C 37.693 210.800,37.692 210.752,37.110 210.300 C 36.757 210.025,36.383 209.440,36.280 209.000 C 36.143 208.416,36.080 208.380,36.046 208.867 M39.254 211.867 C 39.174 213.146,39.601 214.000,40.319 214.000 C 40.890 214.000,40.888 213.950,40.305 213.500 C 39.948 213.225,39.578 212.550,39.483 212.000 C 39.333 211.136,39.302 211.118,39.254 211.867 M45.612 219.292 C 45.599 220.019,47.165 220.639,48.083 220.271 C 48.367 220.157,48.114 220.049,47.520 220.032 C 46.926 220.014,46.256 219.685,46.032 219.300 C 45.648 218.641,45.624 218.641,45.612 219.292 M48.812 222.492 C 48.800 223.186,50.593 223.940,51.085 223.448 C 51.222 223.312,50.952 223.200,50.487 223.200 C 50.021 223.200,49.456 222.885,49.232 222.500 C 48.848 221.841,48.824 221.841,48.812 222.492 M51.646 224.467 C 51.571 225.553,52.041 226.400,52.719 226.400 C 53.293 226.400,53.292 226.352,52.710 225.900 C 52.357 225.625,51.983 225.040,51.880 224.600 C 51.743 224.016,51.680 223.980,51.646 224.467 M54.854 227.467 C 54.774 228.746,55.201 229.600,55.919 229.600 C 56.490 229.600,56.488 229.550,55.905 229.100 C 55.548 228.825,55.178 228.150,55.083 227.600 C 54.933 226.736,54.902 226.718,54.854 227.467 M61.212 234.892 C 61.199 235.619,62.765 236.239,63.683 235.871 C 63.967 235.757,63.714 235.649,63.120 235.632 C 62.526 235.614,61.856 235.285,61.632 234.900 C 61.248 234.241,61.224 234.241,61.212 234.892 M64.412 238.092 C 64.400 238.786,66.193 239.540,66.685 239.048 C 66.822 238.912,66.552 238.800,66.087 238.800 C 65.621 238.800,65.056 238.485,64.832 238.100 C 64.448 237.441,64.424 237.441,64.412 238.092 M70.454 243.067 C 70.374 244.346,70.801 245.200,71.519 245.200 C 72.090 245.200,72.088 245.150,71.505 244.700 C 71.148 244.425,70.778 243.750,70.683 243.200 C 70.533 242.336,70.502 242.318,70.454 243.067 M73.646 246.467 C 73.581 247.412,74.013 248.400,74.492 248.400 C 74.767 248.400,74.767 248.238,74.492 247.900 C 74.269 247.625,73.998 247.040,73.889 246.600 C 73.744 246.010,73.681 245.975,73.646 246.467 M76.800 250.712 C 76.800 251.234,78.691 251.842,79.085 251.448 C 79.222 251.312,78.979 251.200,78.547 251.200 C 78.114 251.200,77.544 250.984,77.280 250.720 C 76.915 250.355,76.800 250.353,76.800 250.712 M80.000 253.912 C 80.000 254.434,81.891 255.042,82.285 254.648 C 82.422 254.512,82.179 254.400,81.747 254.400 C 81.314 254.400,80.744 254.184,80.480 253.920 C 80.115 253.555,80.000 253.553,80.000 253.912 M100.408 256.990 C 100.130 257.326,99.560 257.600,99.142 257.600 C 98.709 257.600,98.176 258.055,97.901 258.657 C 97.636 259.239,96.875 259.952,96.210 260.242 C 95.154 260.702,95.115 260.771,95.900 260.784 C 96.917 260.802,98.400 259.506,98.400 258.600 C 98.400 258.270,98.726 258.000,99.124 258.000 C 99.983 258.000,101.503 256.970,101.156 256.623 C 101.023 256.490,100.686 256.655,100.408 256.990 M86.400 259.132 C 86.400 260.129,87.687 260.919,88.921 260.680 L 89.800 260.509 88.929 260.454 C 88.450 260.425,87.685 259.926,87.229 259.346 C 86.455 258.362,86.400 258.348,86.400 259.132 M145.200 321.189 C 145.200 321.449,145.920 322.354,146.800 323.200 C 147.680 324.046,148.400 324.566,148.400 324.356 C 148.400 323.588,147.230 321.200,146.853 321.200 C 146.640 321.200,146.181 321.091,145.833 320.957 C 145.475 320.820,145.200 320.921,145.200 321.189 M309.029 321.429 C 308.683 321.774,308.400 322.431,308.400 322.887 C 308.400 323.665,308.462 323.650,309.381 322.658 C 309.920 322.076,310.550 321.600,310.781 321.600 C 311.011 321.600,311.200 321.420,311.200 321.200 C 311.200 320.575,309.727 320.731,309.029 321.429 M158.919 334.600 C 160.655 336.286,160.910 336.340,160.365 334.908 C 159.892 333.664,159.331 333.215,158.239 333.206 C 157.622 333.201,157.751 333.466,158.919 334.600 M296.925 333.514 C 296.287 333.920,295.509 336.000,295.996 336.000 C 296.203 336.000,296.558 335.652,296.786 335.227 C 297.013 334.802,297.559 334.340,298.000 334.200 C 298.440 334.060,298.800 333.778,298.800 333.573 C 298.800 333.127,297.594 333.089,296.925 333.514 M123.600 334.983 C 123.600 335.816,125.034 338.113,125.713 338.369 C 127.174 338.918,126.972 338.102,125.233 336.432 C 124.335 335.569,123.600 334.917,123.600 334.983 M332.076 335.873 C 331.253 336.202,329.600 337.845,329.600 338.333 C 329.600 339.388,332.188 337.653,332.523 336.374 C 332.634 335.948,332.697 335.614,332.663 335.632 C 332.628 335.649,332.364 335.758,332.076 335.873 M325.681 347.618 C 325.372 348.113,325.346 348.400,325.609 348.400 C 325.838 348.400,326.132 348.122,326.262 347.783 C 326.622 346.845,326.233 346.734,325.681 347.618 M323.200 349.351 C 323.200 350.460,322.597 351.050,321.200 351.307 L 320.200 351.491 321.271 351.546 C 322.588 351.612,323.600 350.667,323.600 349.371 C 323.600 348.837,323.510 348.400,323.400 348.400 C 323.290 348.400,323.200 348.828,323.200 349.351 M133.212 350.251 C 133.192 351.008,134.303 351.672,135.278 351.485 C 136.110 351.326,136.095 351.304,135.120 351.254 C 134.526 351.225,133.856 350.885,133.632 350.500 C 133.408 350.115,133.219 350.003,133.212 350.251 M142.800 355.338 C 142.800 356.276,146.099 358.434,146.666 357.867 C 146.813 357.720,146.633 357.600,146.267 357.600 C 145.900 357.600,145.600 357.396,145.600 357.146 C 145.600 356.612,143.730 354.800,143.179 354.800 C 142.971 354.800,142.800 355.042,142.800 355.338 M311.700 355.784 C 311.205 356.279,310.800 356.890,310.800 357.142 C 310.800 357.394,310.500 357.600,310.133 357.600 C 309.767 357.600,309.587 357.720,309.734 357.867 C 310.301 358.434,313.600 356.276,313.600 355.338 C 313.600 354.550,312.730 354.755,311.700 355.784 " stroke="none" fill="#000000" fill-rule="evenodd"></path><path id="path1" d="M157.722 68.400 C 157.473 69.060,157.310 69.600,157.360 69.600 C 157.409 69.600,157.849 69.060,158.337 68.400 C 158.932 67.595,159.051 67.200,158.700 67.200 C 158.411 67.200,157.972 67.740,157.722 68.400 M297.600 67.800 C 297.874 68.130,298.256 68.400,298.449 68.400 C 298.642 68.400,298.800 68.130,298.800 67.800 C 298.800 67.455,298.439 67.200,297.951 67.200 C 297.242 67.200,297.184 67.299,297.600 67.800 M145.338 80.217 C 144.966 81.188,145.402 81.282,146.198 80.402 C 146.860 79.670,146.865 79.600,146.249 79.600 C 145.878 79.600,145.468 79.878,145.338 80.217 M309.460 80.211 C 309.727 80.909,311.200 81.810,311.200 81.276 C 311.200 80.885,309.882 79.600,309.481 79.600 C 309.340 79.600,309.331 79.875,309.460 80.211 M131.700 139.097 C 133.185 139.174,135.615 139.174,137.100 139.097 C 138.585 139.020,137.370 138.957,134.400 138.957 C 131.430 138.957,130.215 139.020,131.700 139.097 M88.385 140.761 C 87.623 141.400,87.102 142.027,87.227 142.155 C 87.352 142.283,88.063 141.761,88.806 140.994 C 90.450 139.297,90.258 139.191,88.385 140.761 M62.198 165.602 C 61.175 166.732,61.610 166.837,62.686 165.720 C 63.173 165.214,63.426 164.800,63.248 164.800 C 63.070 164.800,62.597 165.161,62.198 165.602 M34.388 193.530 C 33.892 193.931,33.557 194.426,33.643 194.630 C 33.729 194.833,34.284 194.505,34.874 193.900 C 36.085 192.661,35.763 192.416,34.388 193.530 M87.149 258.678 C 87.399 259.160,87.795 259.673,88.029 259.818 C 88.825 260.310,88.645 259.802,87.668 258.800 C 86.785 257.894,86.736 257.883,87.149 258.678 M309.375 323.268 L 308.200 324.536 309.488 323.650 C 310.867 322.700,311.465 322.000,310.898 322.000 C 310.707 322.000,310.021 322.571,309.375 323.268 M145.200 323.000 C 145.200 323.330,145.365 323.600,145.567 323.600 C 145.769 323.600,146.264 323.721,146.667 323.868 C 147.359 324.121,147.358 324.088,146.638 323.268 C 145.749 322.255,145.200 322.153,145.200 323.000 M157.948 334.678 C 158.431 335.606,159.138 336.195,159.425 335.908 C 159.520 335.814,159.123 335.301,158.544 334.768 C 157.540 333.845,157.513 333.841,157.948 334.678 M297.400 335.200 C 297.002 335.640,296.856 336.000,297.076 336.000 C 297.296 336.000,297.802 335.640,298.200 335.200 C 298.598 334.760,298.744 334.400,298.524 334.400 C 298.304 334.400,297.798 334.760,297.400 335.200 M125.600 336.151 C 125.600 336.234,125.870 336.526,126.200 336.800 C 126.691 337.208,126.800 337.180,126.800 336.649 C 126.800 336.292,126.530 336.000,126.200 336.000 C 125.870 336.000,125.600 336.068,125.600 336.151 M329.600 336.649 C 329.600 337.180,329.709 337.208,330.200 336.800 C 330.530 336.526,330.800 336.234,330.800 336.151 C 330.800 336.068,330.530 336.000,330.200 336.000 C 329.870 336.000,329.600 336.292,329.600 336.649 M144.400 354.951 C 144.400 355.034,144.670 355.326,145.000 355.600 C 145.491 356.008,145.600 355.980,145.600 355.449 C 145.600 355.092,145.330 354.800,145.000 354.800 C 144.670 354.800,144.400 354.868,144.400 354.951 M310.800 355.449 C 310.800 355.980,310.909 356.008,311.400 355.600 C 311.730 355.326,312.000 355.034,312.000 354.951 C 312.000 354.868,311.730 354.800,311.400 354.800 C 311.070 354.800,310.800 355.092,310.800 355.449 " stroke="none" fill="#242424" fill-rule="evenodd"></path><path id="path2" d="M144.399 47.802 C 143.883 48.351,143.644 48.800,143.868 48.800 C 144.379 48.800,145.798 47.265,145.532 46.999 C 145.425 46.891,144.914 47.252,144.399 47.802 M310.800 47.068 C 310.800 47.579,312.335 48.998,312.601 48.732 C 312.709 48.625,312.348 48.114,311.798 47.599 C 311.249 47.083,310.800 46.844,310.800 47.068 M125.864 66.329 C 124.895 67.399,125.051 67.770,126.071 66.820 C 126.550 66.374,126.849 65.915,126.735 65.802 C 126.621 65.688,126.230 65.925,125.864 66.329 M329.600 65.986 C 329.600 66.198,330.005 66.584,330.500 66.844 C 331.395 67.314,331.396 67.312,330.638 66.458 C 329.791 65.505,329.600 65.418,329.600 65.986 M298.734 68.751 C 299.028 68.937,299.253 69.204,299.234 69.345 C 299.215 69.485,299.290 69.600,299.400 69.600 C 299.510 69.600,299.712 69.600,299.849 69.600 C 299.986 69.600,299.874 69.330,299.600 69.000 C 299.326 68.670,298.899 68.403,298.651 68.406 C 298.380 68.410,298.413 68.547,298.734 68.751 M308.677 79.057 C 308.325 79.408,309.592 81.169,310.557 81.672 C 311.175 81.994,311.100 81.829,310.277 81.054 C 309.660 80.472,309.258 79.830,309.384 79.626 C 309.647 79.200,309.030 78.703,308.677 79.057 M146.537 79.470 C 146.686 79.619,146.401 80.204,145.904 80.770 L 145.000 81.800 146.088 80.842 C 147.039 80.004,147.245 79.200,146.510 79.200 C 146.376 79.200,146.388 79.322,146.537 79.470 M87.601 140.998 C 87.086 141.548,86.739 142.048,86.832 142.111 C 86.924 142.174,87.484 141.724,88.074 141.112 C 88.665 140.501,89.012 140.000,88.844 140.000 C 88.677 140.000,88.117 140.449,87.601 140.998 M99.606 142.651 C 99.597 143.326,100.681 144.117,100.971 143.647 C 101.104 143.432,101.030 143.142,100.807 143.004 C 100.583 142.866,100.397 142.898,100.394 143.076 C 100.391 143.254,100.213 143.130,100.000 142.800 C 99.787 142.470,99.609 142.403,99.606 142.651 M58.578 168.435 C 58.082 169.238,59.042 169.675,59.637 168.917 C 60.161 168.250,60.146 168.242,59.425 168.800 C 58.721 169.345,58.674 169.336,58.913 168.700 C 59.204 167.923,58.996 167.758,58.578 168.435 M46.386 181.017 C 46.024 181.453,45.999 181.759,46.300 182.060 C 46.601 182.361,46.707 182.268,46.663 181.743 C 46.622 181.262,46.846 181.019,47.296 181.055 C 47.678 181.085,47.893 180.950,47.772 180.755 C 47.448 180.230,46.963 180.322,46.386 181.017 M35.295 193.466 C 34.478 193.796,33.923 195.105,34.461 195.438 C 34.739 195.609,34.816 195.549,34.653 195.286 C 34.504 195.045,34.780 194.477,35.267 194.024 C 36.172 193.181,36.175 193.112,35.295 193.466 M99.883 256.935 C 100.037 257.184,99.841 257.225,99.366 257.044 C 98.749 256.809,98.698 256.851,99.103 257.259 C 99.508 257.668,99.725 257.647,100.222 257.150 C 100.764 256.608,100.766 256.533,100.237 256.533 C 99.906 256.533,99.747 256.714,99.883 256.935 M310.095 321.866 C 309.818 321.978,309.388 322.459,309.141 322.935 C 308.725 323.736,308.777 323.726,309.846 322.800 C 310.481 322.250,311.075 321.755,311.167 321.700 C 311.459 321.525,310.620 321.655,310.095 321.866 M147.032 323.948 C 146.760 324.388,147.915 325.418,148.276 325.057 C 148.418 324.916,148.313 324.800,148.043 324.800 C 147.773 324.800,147.656 324.632,147.783 324.428 C 147.909 324.223,147.843 323.950,147.634 323.821 C 147.426 323.692,147.155 323.749,147.032 323.948 M157.015 333.576 C 156.889 333.779,156.970 334.058,157.193 334.196 C 157.417 334.334,157.600 334.313,157.600 334.149 C 157.600 333.985,158.152 334.379,158.826 335.024 C 159.500 335.670,159.941 335.911,159.806 335.560 C 159.465 334.672,157.292 333.127,157.015 333.576 M297.695 334.266 C 297.418 334.378,296.988 334.859,296.741 335.335 C 296.325 336.136,296.377 336.126,297.446 335.200 C 298.081 334.650,298.675 334.155,298.767 334.100 C 299.059 333.925,298.220 334.055,297.695 334.266 M125.200 336.119 C 125.200 336.478,125.605 336.984,126.100 337.244 L 127.000 337.716 126.204 336.758 C 125.767 336.231,125.362 335.725,125.304 335.633 C 125.247 335.542,125.200 335.760,125.200 336.119 M330.162 336.858 C 329.404 337.712,329.405 337.714,330.300 337.244 C 330.795 336.984,331.200 336.598,331.200 336.386 C 331.200 335.818,331.009 335.905,330.162 336.858 M322.369 349.700 C 322.027 350.820,322.118 351.200,322.628 350.777 C 322.938 350.520,323.093 350.150,322.972 349.955 C 322.765 349.620,322.436 349.481,322.369 349.700 M144.000 355.154 C 144.000 355.349,144.495 355.825,145.100 356.212 L 146.200 356.915 145.230 355.858 C 144.182 354.714,144.000 354.610,144.000 355.154 M311.170 355.858 L 310.200 356.915 311.300 356.212 C 311.905 355.825,312.400 355.349,312.400 355.154 C 312.400 354.610,312.218 354.714,311.170 355.858 " stroke="none" fill="#333333" fill-rule="evenodd"></path><path id="path3" d="M146.177 46.167 C 145.750 46.479,145.536 46.869,145.701 47.034 C 145.865 47.199,146.000 47.113,146.000 46.843 C 146.000 46.573,146.161 46.452,146.358 46.574 C 146.555 46.696,146.819 46.526,146.946 46.198 C 147.229 45.459,147.150 45.456,146.177 46.167 M309.451 46.188 C 309.579 46.522,309.830 46.705,310.008 46.595 C 310.186 46.485,310.423 46.621,310.534 46.898 C 310.686 47.274,310.745 47.278,310.768 46.914 C 310.786 46.647,310.444 46.238,310.009 46.005 C 309.364 45.660,309.261 45.694,309.451 46.188 M139.423 49.484 C 139.157 50.177,139.917 50.140,140.633 49.425 C 141.133 48.924,141.105 48.857,140.414 48.909 C 139.978 48.942,139.532 49.201,139.423 49.484 M134.767 52.318 C 133.397 53.002,133.110 53.637,134.034 53.945 C 134.345 54.048,134.437 53.875,134.284 53.475 C 134.114 53.033,134.216 52.908,134.620 53.063 C 134.939 53.186,135.200 53.092,135.200 52.855 C 135.200 52.619,135.452 52.522,135.760 52.640 C 136.067 52.758,136.430 52.675,136.566 52.455 C 137.031 51.703,136.135 51.635,134.767 52.318 M319.802 51.996 C 319.520 52.454,320.286 52.918,320.800 52.600 C 321.020 52.464,321.200 52.563,321.200 52.819 C 321.200 53.076,321.461 53.186,321.780 53.063 C 322.167 52.915,322.285 53.033,322.137 53.420 C 322.014 53.739,322.124 54.000,322.381 54.000 C 322.637 54.000,322.745 54.166,322.620 54.368 C 322.495 54.570,322.848 55.094,323.404 55.532 C 324.090 56.071,324.252 56.394,323.908 56.532 C 323.595 56.658,323.669 56.749,324.100 56.768 C 324.485 56.786,324.800 57.098,324.800 57.462 C 324.800 58.058,324.879 58.053,325.596 57.403 C 326.349 56.722,326.354 56.652,325.696 56.112 C 325.313 55.798,325.253 55.672,325.562 55.832 C 325.934 56.025,326.026 55.966,325.834 55.655 C 325.675 55.398,325.393 55.280,325.208 55.395 C 324.549 55.802,323.562 55.083,323.028 53.806 C 322.485 52.507,320.259 51.258,319.802 51.996 M132.900 54.888 C 132.405 55.127,132.000 55.479,132.000 55.670 C 132.000 55.862,132.450 55.724,133.000 55.363 C 134.467 54.402,134.416 54.157,132.900 54.888 M130.967 55.503 C 131.131 55.795,130.984 56.108,130.615 56.250 C 130.146 56.430,130.092 56.629,130.409 57.011 C 130.708 57.371,130.711 57.608,130.419 57.788 C 130.189 57.931,130.000 58.253,130.000 58.504 C 130.000 59.130,130.827 58.292,130.939 57.552 C 130.985 57.249,131.173 56.759,131.356 56.465 C 131.556 56.145,131.488 55.744,131.186 55.465 C 130.800 55.108,130.749 55.117,130.967 55.503 M156.892 67.836 C 156.612 68.138,156.352 68.523,156.314 68.692 C 156.146 69.440,155.400 69.912,155.106 69.456 C 154.922 69.171,154.810 69.278,154.806 69.743 C 154.802 70.299,154.976 70.410,155.500 70.185 C 155.885 70.020,156.506 69.872,156.881 69.856 C 157.255 69.841,157.487 69.753,157.395 69.662 C 157.303 69.570,157.389 69.194,157.586 68.826 C 158.087 67.890,157.551 67.126,156.892 67.836 M298.800 67.753 C 298.800 68.083,298.983 68.466,299.207 68.604 C 299.430 68.742,299.491 69.068,299.342 69.328 C 299.194 69.587,299.212 69.674,299.383 69.519 C 299.555 69.365,299.958 69.501,300.280 69.823 C 300.601 70.144,301.056 70.289,301.289 70.145 C 301.536 69.992,301.270 69.650,300.657 69.328 C 300.076 69.024,299.600 68.521,299.600 68.211 C 299.600 67.901,299.420 67.536,299.200 67.400 C 298.980 67.264,298.800 67.423,298.800 67.753 M330.500 67.477 C 331.105 67.574,331.600 67.816,331.600 68.014 C 331.600 68.212,331.869 68.272,332.198 68.146 C 333.181 67.768,332.558 67.370,330.928 67.334 C 329.891 67.312,329.753 67.357,330.500 67.477 M124.000 68.200 C 123.656 68.615,123.641 68.800,123.951 68.800 C 124.198 68.800,124.400 68.609,124.400 68.376 C 124.400 68.143,124.580 68.064,124.800 68.200 C 125.020 68.336,125.200 68.257,125.200 68.024 C 125.200 67.412,124.578 67.503,124.000 68.200 M147.673 76.887 C 147.113 77.447,147.055 78.000,147.557 78.000 C 147.924 78.000,148.527 76.794,148.283 76.549 C 148.208 76.475,147.934 76.626,147.673 76.887 M308.000 77.176 C 308.000 77.383,308.183 77.666,308.407 77.804 C 308.630 77.942,308.709 78.223,308.583 78.428 C 308.456 78.632,308.554 78.800,308.800 78.800 C 309.046 78.800,309.118 79.025,308.959 79.300 C 308.801 79.575,308.822 79.663,309.006 79.496 C 309.190 79.329,309.735 79.563,310.217 80.016 L 311.093 80.839 311.046 79.925 C 311.017 79.354,310.703 78.954,310.210 78.859 C 309.341 78.691,308.362 77.585,308.659 77.104 C 308.763 76.937,308.657 76.800,308.424 76.800 C 308.191 76.800,308.000 76.969,308.000 77.176 M145.900 78.277 C 144.838 78.553,145.018 79.653,146.100 79.499 C 147.121 79.354,148.848 78.431,148.133 78.412 C 147.876 78.405,147.426 78.331,147.133 78.248 C 146.840 78.164,146.285 78.177,145.900 78.277 M126.913 137.645 C 126.965 138.337,127.313 138.572,128.100 138.447 C 128.265 138.421,128.400 138.610,128.400 138.867 C 128.400 139.123,128.518 139.215,128.663 139.071 C 128.807 138.926,128.460 138.377,127.891 137.849 C 126.961 136.987,126.862 136.966,126.913 137.645 M131.900 138.696 C 133.275 138.774,135.525 138.774,136.900 138.696 C 138.275 138.618,137.150 138.554,134.400 138.554 C 131.650 138.554,130.525 138.618,131.900 138.696 M90.800 139.679 C 90.800 139.929,90.691 140.024,90.557 139.891 C 90.239 139.572,88.670 141.044,88.565 141.760 C 88.519 142.073,88.771 142.276,89.141 142.222 C 89.504 142.170,89.856 141.750,89.925 141.289 C 89.997 140.801,90.490 140.303,91.104 140.099 C 91.971 139.810,92.038 139.700,91.480 139.486 C 91.086 139.335,90.800 139.416,90.800 139.679 M93.898 139.435 C 93.741 139.592,93.925 139.958,94.306 140.248 C 95.237 140.954,95.600 140.929,95.600 140.157 C 95.600 139.763,95.378 139.600,95.026 139.735 C 94.710 139.856,94.391 139.774,94.318 139.553 C 94.244 139.331,94.055 139.278,93.898 139.435 M96.500 139.865 C 95.506 140.266,98.305 144.000,99.600 144.000 C 99.820 144.000,100.000 144.341,100.000 144.757 C 100.000 145.588,101.034 146.193,101.411 145.583 C 101.541 145.372,101.462 145.200,101.236 145.200 C 101.010 145.200,100.929 144.930,101.055 144.600 C 101.182 144.270,101.076 144.000,100.819 144.000 C 100.563 144.000,100.467 143.816,100.606 143.590 C 100.745 143.365,100.711 143.216,100.530 143.260 C 99.944 143.401,98.018 142.294,98.236 141.942 C 98.352 141.754,98.237 141.600,97.981 141.600 C 97.724 141.600,97.617 141.332,97.743 141.005 C 97.875 140.661,97.766 140.450,97.486 140.505 C 97.219 140.557,97.045 140.375,97.100 140.100 C 97.155 139.825,97.155 139.614,97.100 139.632 C 97.045 139.649,96.775 139.754,96.500 139.865 M84.607 143.179 C 84.463 143.631,84.217 144.000,84.058 144.000 C 83.900 144.000,83.743 144.360,83.710 144.800 C 83.674 145.281,83.896 145.600,84.268 145.600 C 84.682 145.600,84.805 145.370,84.642 144.900 C 84.416 144.251,84.436 144.249,84.922 144.871 C 85.639 145.790,86.185 145.277,86.274 143.600 C 86.315 142.830,86.253 142.433,86.135 142.717 C 85.979 143.097,85.783 143.118,85.395 142.796 C 84.993 142.462,84.805 142.553,84.607 143.179 M82.000 146.485 C 82.000 146.658,81.775 146.755,81.500 146.700 C 81.225 146.645,81.045 146.825,81.100 147.100 C 81.155 147.375,81.009 147.600,80.776 147.600 C 80.543 147.600,80.455 147.765,80.580 147.968 C 80.705 148.170,80.536 148.607,80.204 148.939 C 79.280 149.863,79.486 150.227,80.442 149.362 C 80.905 148.943,81.670 148.600,82.142 148.600 C 82.731 148.600,83.002 148.349,83.006 147.800 C 83.009 147.360,83.148 146.786,83.315 146.524 C 83.515 146.209,83.345 146.069,82.809 146.109 C 82.364 146.143,82.000 146.312,82.000 146.485 M77.747 149.841 C 77.163 150.453,77.024 150.864,77.306 151.146 C 77.588 151.428,77.967 151.241,78.510 150.550 C 79.525 149.260,78.876 148.657,77.747 149.841 M74.871 152.400 C 74.942 152.730,74.767 152.952,74.483 152.894 C 74.092 152.814,74.067 152.977,74.380 153.562 C 74.659 154.084,74.662 154.401,74.387 154.538 C 74.163 154.649,74.209 154.694,74.490 154.637 C 74.771 154.580,75.000 154.278,75.000 153.967 C 75.000 153.655,75.178 153.272,75.397 153.117 C 75.648 152.937,75.601 152.644,75.268 152.317 C 74.838 151.894,74.766 151.909,74.871 152.400 M100.676 153.781 C 100.357 154.100,99.955 154.235,99.783 154.081 C 99.612 153.926,99.608 154.037,99.776 154.326 C 100.043 154.789,101.600 153.946,101.600 153.338 C 101.600 153.047,101.235 153.222,100.676 153.781 M71.694 155.683 C 71.752 155.967,71.567 156.152,71.283 156.094 C 70.885 156.013,70.866 156.175,71.197 156.794 C 71.439 157.247,71.465 157.600,71.257 157.600 C 71.053 157.600,70.780 157.876,70.650 158.213 C 70.460 158.709,70.597 158.690,71.369 158.113 C 71.979 157.657,72.193 157.243,71.964 156.963 C 71.474 156.363,72.011 155.911,72.616 156.414 C 73.111 156.824,73.870 155.736,73.409 155.276 C 73.294 155.161,73.200 155.283,73.200 155.547 C 73.200 155.905,72.994 155.918,72.394 155.597 C 71.775 155.266,71.613 155.285,71.694 155.683 M68.804 158.996 C 68.532 159.323,68.105 159.469,67.855 159.319 C 67.574 159.151,67.591 159.282,67.899 159.662 C 68.428 160.316,67.249 161.916,66.668 161.334 C 66.520 161.187,66.400 161.285,66.400 161.551 C 66.400 161.817,66.085 161.982,65.700 161.918 C 65.223 161.837,65.037 162.023,65.118 162.500 C 65.182 162.885,65.011 163.200,64.738 163.200 C 64.376 163.200,64.360 163.320,64.680 163.640 C 65.000 163.960,65.567 163.633,66.760 162.440 C 67.662 161.538,68.591 160.800,68.824 160.800 C 69.057 160.800,69.137 160.621,69.002 160.403 C 68.867 160.185,68.941 159.690,69.166 159.303 C 69.392 158.915,69.581 158.824,69.588 159.100 C 69.595 159.375,69.774 159.600,69.987 159.600 C 70.201 159.600,70.271 159.330,70.145 159.000 C 69.853 158.240,69.432 158.239,68.804 158.996 M94.595 159.287 C 94.378 159.775,93.750 160.297,93.200 160.447 C 92.290 160.696,92.279 160.724,93.071 160.760 C 94.050 160.805,95.200 159.839,95.200 158.971 C 95.200 158.179,95.054 158.255,94.595 159.287 M63.600 165.200 C 63.600 165.446,63.465 165.565,63.300 165.466 C 63.135 165.366,62.768 165.535,62.484 165.842 C 62.201 166.149,62.066 166.400,62.184 166.400 C 62.444 166.400,60.882 167.996,60.609 168.009 C 60.236 168.027,58.512 169.931,58.249 170.617 C 58.024 171.203,58.078 171.233,58.591 170.808 C 58.926 170.530,59.206 170.459,59.213 170.651 C 59.221 170.843,59.558 170.603,59.964 170.117 C 60.369 169.631,60.813 169.346,60.950 169.484 C 61.088 169.621,61.200 169.365,61.200 168.916 C 61.200 168.466,61.470 167.874,61.800 167.600 C 62.130 167.326,62.400 167.236,62.400 167.400 C 62.400 167.564,62.662 167.480,62.982 167.215 C 63.303 166.949,63.753 166.847,63.982 166.989 C 64.230 167.142,64.400 166.840,64.400 166.247 C 64.400 165.697,64.220 165.136,64.000 165.000 C 63.780 164.864,63.600 164.954,63.600 165.200 M56.617 171.228 C 56.838 171.585,56.739 171.662,56.286 171.488 C 55.811 171.306,55.706 171.411,55.888 171.886 C 56.062 172.339,55.985 172.438,55.628 172.217 C 55.227 171.970,55.216 172.082,55.574 172.752 C 56.124 173.779,56.732 173.863,56.656 172.900 C 56.621 172.461,56.861 172.221,57.300 172.256 C 58.263 172.332,58.179 171.724,57.152 171.174 C 56.482 170.816,56.370 170.827,56.617 171.228 M53.448 174.580 C 53.561 174.876,53.434 175.255,53.165 175.421 C 52.864 175.608,52.779 175.557,52.945 175.289 C 53.092 175.051,53.043 174.750,52.834 174.621 C 52.313 174.299,51.985 174.928,52.358 175.533 C 52.716 176.112,53.847 175.776,54.144 175.002 C 54.257 174.707,54.100 174.370,53.795 174.253 C 53.447 174.120,53.318 174.241,53.448 174.580 M78.800 175.400 C 78.526 175.730,77.934 176.000,77.484 176.000 C 77.035 176.000,76.778 176.112,76.915 176.248 C 77.329 176.662,79.096 176.047,79.343 175.403 C 79.638 174.636,79.435 174.635,78.800 175.400 M50.800 177.309 C 50.800 177.516,50.536 177.584,50.213 177.460 C 49.890 177.336,49.516 177.412,49.383 177.627 C 49.250 177.843,49.289 177.994,49.470 177.963 C 50.279 177.822,50.549 178.045,50.000 178.400 C 49.487 178.731,49.502 178.789,50.100 178.794 C 50.485 178.797,50.800 178.519,50.800 178.176 C 50.800 177.833,50.961 177.652,51.158 177.774 C 51.355 177.896,51.608 177.756,51.720 177.464 C 51.832 177.172,51.671 176.933,51.362 176.933 C 51.053 176.933,50.800 177.103,50.800 177.309 M76.000 177.402 C 76.000 177.806,75.695 178.474,75.322 178.886 C 74.685 179.590,74.686 179.619,75.326 179.373 C 76.030 179.103,76.686 177.353,76.248 176.915 C 76.112 176.778,76.000 176.997,76.000 177.402 M48.884 179.506 C 48.948 179.892,48.778 180.156,48.500 180.100 C 48.225 180.045,48.000 180.300,48.000 180.667 C 48.000 181.033,47.882 181.215,47.737 181.070 C 47.375 180.708,46.356 181.605,46.628 182.045 C 46.749 182.240,46.567 182.400,46.224 182.400 C 45.881 182.400,45.621 182.535,45.647 182.700 C 45.821 183.803,45.581 184.018,44.700 183.549 C 43.853 183.097,43.834 183.114,44.387 183.835 C 44.710 184.256,44.816 184.467,44.624 184.303 C 44.185 183.932,43.130 184.763,43.428 185.245 C 43.549 185.440,43.367 185.600,43.024 185.600 C 42.651 185.600,42.400 185.948,42.400 186.467 C 42.400 186.943,42.283 187.216,42.140 187.073 C 41.996 186.930,41.623 187.125,41.310 187.506 C 40.997 187.888,40.872 187.947,41.032 187.638 C 41.238 187.242,41.169 187.172,40.801 187.399 C 40.394 187.651,40.447 187.851,41.039 188.302 C 41.760 188.852,41.750 188.868,40.850 188.599 C 40.256 188.421,39.992 188.463,40.146 188.712 C 40.498 189.281,39.327 190.134,38.584 189.849 C 38.240 189.717,38.029 189.742,38.116 189.905 C 38.348 190.340,36.921 191.579,36.547 191.267 C 36.370 191.120,36.466 191.313,36.759 191.696 C 37.331 192.444,38.177 192.239,37.865 191.426 C 37.761 191.155,37.929 190.933,38.238 190.933 C 38.547 190.933,38.803 191.128,38.806 191.367 C 38.809 191.605,39.038 191.354,39.314 190.808 C 39.590 190.262,40.240 189.604,40.758 189.346 C 41.277 189.087,41.963 188.335,42.283 187.673 C 42.604 187.011,43.391 186.252,44.033 185.986 C 44.675 185.720,45.200 185.300,45.200 185.051 C 45.201 184.425,46.993 182.400,47.547 182.400 C 47.796 182.400,48.000 182.130,48.000 181.800 C 48.000 181.470,48.135 181.194,48.300 181.187 C 49.058 181.156,49.996 179.284,49.373 179.045 C 48.957 178.885,48.804 179.029,48.884 179.506 M36.000 192.887 C 36.000 193.586,34.561 194.812,34.147 194.467 C 33.971 194.320,34.090 194.550,34.413 194.977 C 34.863 195.572,34.872 195.677,34.455 195.426 C 33.915 195.100,33.212 195.764,33.212 196.600 C 33.212 196.820,33.375 196.743,33.574 196.428 C 33.773 196.114,34.234 195.812,34.599 195.759 C 35.694 195.598,36.530 195.196,36.283 194.949 C 36.155 194.822,36.213 194.293,36.410 193.773 C 36.631 193.191,36.622 192.737,36.385 192.591 C 36.173 192.460,36.000 192.593,36.000 192.887 M262.275 193.237 C 262.041 194.128,262.355 194.399,263.215 194.050 C 263.758 193.829,263.751 193.722,263.152 193.137 C 262.520 192.519,262.460 192.526,262.275 193.237 M263.299 205.122 C 263.036 205.716,262.423 206.381,261.936 206.601 C 261.450 206.820,260.981 207.270,260.895 207.600 C 260.802 207.959,260.872 208.039,261.070 207.800 C 261.251 207.580,261.625 207.382,261.900 207.360 C 263.062 207.267,263.234 207.179,263.000 206.800 C 262.864 206.580,262.943 206.400,263.176 206.400 C 263.409 206.400,263.571 206.265,263.536 206.100 C 263.502 205.935,263.614 205.477,263.786 205.083 C 263.958 204.688,264.026 204.293,263.938 204.204 C 263.849 204.116,263.561 204.529,263.299 205.122 M33.600 206.400 C 33.164 206.682,33.143 206.789,33.524 206.794 C 33.835 206.798,33.926 207.002,33.747 207.300 C 33.540 207.644,33.656 207.630,34.119 207.255 C 35.093 206.464,34.645 205.725,33.600 206.400 M35.078 207.055 C 34.965 207.169,35.393 207.760,36.031 208.369 C 36.668 208.978,37.057 209.623,36.895 209.803 C 36.733 209.982,36.825 209.999,37.100 209.841 C 37.653 209.523,37.789 208.400,37.275 208.400 C 37.097 208.400,36.576 208.051,36.118 207.624 C 35.660 207.197,35.192 206.941,35.078 207.055 M37.600 209.902 C 37.600 210.069,38.130 210.439,38.778 210.726 C 39.536 211.062,39.878 211.453,39.735 211.824 C 39.614 212.141,39.724 212.400,39.981 212.400 C 40.237 212.400,40.319 212.608,40.162 212.862 C 39.985 213.148,40.052 213.215,40.338 213.038 C 40.592 212.881,40.800 212.493,40.800 212.176 C 40.800 211.859,41.025 211.585,41.300 211.567 C 41.575 211.549,41.229 211.285,40.531 210.979 C 39.832 210.673,39.147 210.238,39.007 210.011 C 38.714 209.537,37.600 209.451,37.600 209.902 M41.347 212.300 C 41.512 212.575,41.457 212.800,41.224 212.800 C 40.991 212.800,40.800 212.980,40.800 213.200 C 40.800 213.420,41.060 213.600,41.377 213.600 C 41.695 213.600,42.206 213.959,42.513 214.397 C 42.820 214.836,43.148 215.151,43.241 215.097 C 43.334 215.044,43.148 215.225,42.828 215.500 C 42.414 215.857,42.390 216.000,42.747 216.000 C 43.022 216.000,43.146 216.164,43.022 216.365 C 42.752 216.801,43.560 216.719,44.400 216.225 C 44.730 216.031,44.866 216.019,44.703 216.200 C 44.539 216.381,44.764 216.780,45.203 217.087 C 45.641 217.394,46.000 217.905,46.000 218.223 C 46.000 218.540,46.180 218.800,46.400 218.800 C 46.620 218.800,46.800 218.613,46.800 218.384 C 46.800 217.695,45.088 215.600,44.525 215.600 C 44.236 215.600,44.000 215.313,44.000 214.963 C 44.000 214.612,43.640 214.231,43.200 214.116 C 42.760 214.001,42.400 213.680,42.400 213.402 C 42.400 213.125,42.095 212.651,41.723 212.349 C 41.263 211.976,41.143 211.960,41.347 212.300 M71.858 217.663 C 72.329 217.895,72.905 218.471,73.137 218.942 L 73.559 219.800 73.456 218.910 C 73.328 217.791,73.009 217.472,71.890 217.344 L 71.000 217.241 71.858 217.663 M47.362 218.062 C 47.185 218.348,47.252 218.415,47.538 218.238 C 47.792 218.081,48.000 218.143,48.000 218.376 C 48.000 218.609,47.741 218.800,47.424 218.800 C 47.107 218.800,46.719 219.008,46.562 219.262 C 46.385 219.548,46.452 219.615,46.738 219.438 C 46.992 219.281,47.200 219.363,47.200 219.619 C 47.200 219.876,47.438 219.994,47.729 219.883 C 48.243 219.685,49.455 221.100,49.285 221.700 C 49.238 221.865,49.391 222.000,49.624 222.000 C 49.857 222.000,49.936 222.180,49.800 222.400 C 49.664 222.620,49.743 222.800,49.976 222.800 C 50.209 222.800,50.490 222.800,50.600 222.800 C 51.011 222.800,52.267 224.212,52.113 224.500 C 52.025 224.665,52.154 224.800,52.400 224.800 C 52.646 224.800,52.719 225.008,52.562 225.262 C 52.385 225.548,52.452 225.615,52.738 225.438 C 52.992 225.281,53.200 225.354,53.200 225.600 C 53.200 225.846,53.335 225.964,53.500 225.862 C 53.665 225.760,54.340 226.129,55.000 226.682 C 55.660 227.235,55.975 227.567,55.700 227.420 C 55.425 227.273,55.200 227.343,55.200 227.576 C 55.200 227.809,55.391 228.000,55.624 228.000 C 55.857 228.000,55.919 228.208,55.762 228.462 C 55.585 228.748,55.652 228.815,55.938 228.638 C 56.192 228.481,56.400 228.554,56.400 228.800 C 56.400 229.046,56.566 229.145,56.768 229.020 C 56.970 228.895,57.486 229.238,57.915 229.783 C 58.343 230.327,58.808 230.659,58.947 230.520 C 59.086 230.381,59.200 230.477,59.200 230.733 C 59.200 230.990,59.050 231.200,58.867 231.200 C 58.683 231.200,58.533 231.462,58.533 231.782 C 58.533 232.103,58.668 232.282,58.833 232.180 C 58.997 232.078,59.223 232.221,59.334 232.498 C 59.456 232.801,59.549 232.722,59.568 232.300 C 59.586 231.915,59.810 231.600,60.067 231.600 C 60.323 231.600,60.419 231.714,60.280 231.853 C 60.141 231.992,60.473 232.457,61.017 232.885 C 61.562 233.314,61.905 233.830,61.780 234.032 C 61.655 234.234,61.754 234.400,62.000 234.400 C 62.246 234.400,62.319 234.608,62.162 234.862 C 61.985 235.148,62.052 235.215,62.338 235.038 C 62.592 234.881,62.800 234.943,62.800 235.176 C 62.800 235.409,62.991 235.600,63.224 235.600 C 63.457 235.600,63.527 235.375,63.380 235.100 C 63.233 234.825,63.565 235.140,64.118 235.800 C 64.671 236.460,65.040 237.135,64.938 237.300 C 64.836 237.465,64.954 237.600,65.200 237.600 C 65.446 237.600,65.519 237.808,65.362 238.062 C 65.185 238.348,65.252 238.415,65.538 238.238 C 65.792 238.081,66.000 238.113,66.000 238.309 C 66.000 238.505,66.432 238.896,66.960 239.178 C 67.618 239.531,67.887 239.986,67.817 240.627 C 67.760 241.141,67.823 241.549,67.957 241.534 C 68.946 241.418,69.946 241.739,70.800 242.444 C 71.350 242.898,71.575 243.153,71.300 243.011 C 71.025 242.869,70.800 242.943,70.800 243.176 C 70.800 243.409,70.991 243.600,71.224 243.600 C 71.457 243.600,71.519 243.808,71.362 244.062 C 71.185 244.348,71.252 244.415,71.538 244.238 C 71.792 244.081,72.000 244.154,72.000 244.400 C 72.000 244.646,72.182 244.735,72.404 244.598 C 72.626 244.460,73.121 244.899,73.504 245.572 C 73.887 246.244,74.357 246.796,74.549 246.797 C 74.741 246.799,74.674 246.530,74.400 246.200 C 73.999 245.716,74.009 245.595,74.451 245.573 C 74.753 245.558,74.595 245.351,74.100 245.112 C 73.605 244.873,73.200 244.525,73.200 244.339 C 73.200 244.152,72.930 244.000,72.600 244.000 C 72.227 244.000,72.000 243.622,72.000 243.000 C 72.000 242.378,71.773 242.000,71.400 242.000 C 71.070 242.000,70.800 241.820,70.800 241.600 C 70.800 241.380,70.665 241.221,70.500 241.247 C 69.697 241.374,69.210 241.152,69.300 240.700 C 69.355 240.425,69.175 240.245,68.900 240.300 C 68.448 240.390,68.226 239.903,68.353 239.100 C 68.379 238.935,68.175 238.845,67.900 238.900 C 67.625 238.955,67.443 238.781,67.495 238.514 C 67.554 238.215,67.337 238.126,66.930 238.282 C 66.486 238.453,66.364 238.382,66.558 238.068 C 66.732 237.787,66.598 237.600,66.224 237.600 C 65.881 237.600,65.600 237.330,65.600 237.000 C 65.600 236.670,65.423 236.400,65.208 236.400 C 64.992 236.400,64.702 235.950,64.564 235.400 C 64.384 234.682,64.043 234.400,63.357 234.400 C 62.667 234.400,62.400 234.177,62.400 233.600 C 62.400 233.160,62.151 232.800,61.847 232.800 C 61.542 232.800,61.199 232.440,61.084 232.000 C 60.969 231.560,60.588 231.200,60.237 231.200 C 59.887 231.200,59.600 230.926,59.600 230.591 C 59.600 230.257,59.150 229.778,58.600 229.527 C 58.050 229.277,57.600 228.920,57.600 228.736 C 57.600 228.551,57.330 228.400,57.000 228.400 C 56.634 228.400,56.400 228.027,56.400 227.443 C 56.400 226.757,56.118 226.416,55.400 226.236 C 54.850 226.098,54.400 225.808,54.400 225.592 C 54.400 225.377,54.119 225.200,53.776 225.200 C 53.407 225.200,53.269 225.012,53.438 224.738 C 53.615 224.452,53.548 224.385,53.262 224.562 C 52.849 224.817,52.620 224.339,52.753 223.500 C 52.779 223.335,52.575 223.245,52.300 223.300 C 52.025 223.355,51.845 223.175,51.900 222.900 C 51.955 222.625,51.865 222.421,51.700 222.447 C 50.923 222.570,50.375 222.364,50.583 222.027 C 50.710 221.822,50.470 221.414,50.051 221.121 C 49.632 220.827,49.008 219.915,48.665 219.093 C 47.995 217.491,47.807 217.342,47.362 218.062 M100.283 246.328 C 100.769 246.753,101.039 247.242,100.883 247.414 C 100.727 247.587,100.828 247.597,101.107 247.436 C 101.734 247.075,101.428 246.536,100.278 245.980 L 99.400 245.555 100.283 246.328 M101.293 250.000 C 101.293 250.770,101.375 251.085,101.476 250.700 C 101.576 250.315,101.576 249.685,101.476 249.300 C 101.375 248.915,101.293 249.230,101.293 250.000 M78.403 250.651 C 78.404 250.843,78.964 251.318,79.646 251.706 C 80.743 252.331,80.824 252.493,80.344 253.106 C 79.850 253.736,79.866 253.748,80.510 253.243 C 81.123 252.761,81.144 252.597,80.662 252.043 C 80.355 251.689,80.005 251.130,79.884 250.800 C 79.717 250.346,79.655 250.334,79.632 250.749 C 79.606 251.191,79.484 251.201,79.000 250.800 C 78.670 250.526,78.401 250.459,78.403 250.651 M81.603 253.851 C 81.604 254.043,82.115 254.490,82.739 254.845 C 83.867 255.486,83.870 255.485,83.436 254.558 C 83.196 254.045,82.937 253.808,82.861 254.030 C 82.773 254.286,82.518 254.264,82.161 253.968 C 81.852 253.712,81.601 253.659,81.603 253.851 M100.400 254.036 C 100.400 254.262,100.239 254.348,100.043 254.226 C 99.846 254.105,99.571 254.462,99.431 255.019 C 99.291 255.577,99.002 255.925,98.788 255.793 C 98.575 255.661,98.400 255.883,98.400 256.287 C 98.400 257.309,97.124 258.299,96.023 258.131 C 95.262 258.014,95.142 258.134,95.323 258.827 C 95.476 259.411,95.383 259.602,95.016 259.462 C 94.668 259.328,94.554 259.502,94.678 259.977 C 94.845 260.614,95.004 260.568,96.101 259.566 C 96.781 258.945,97.531 258.548,97.769 258.683 C 98.006 258.818,98.074 258.788,97.919 258.617 C 97.647 258.315,98.708 256.971,99.171 257.029 C 99.297 257.044,99.640 256.818,99.932 256.525 C 100.225 256.232,100.675 256.119,100.932 256.273 C 101.190 256.427,101.148 256.243,100.841 255.864 C 100.355 255.265,100.375 255.106,100.997 254.652 C 101.647 254.177,101.652 254.106,101.056 253.877 C 100.695 253.738,100.400 253.810,100.400 254.036 M83.600 256.400 C 83.164 256.682,83.143 256.789,83.524 256.794 C 83.835 256.798,83.926 257.002,83.747 257.300 C 83.540 257.644,83.656 257.630,84.119 257.255 C 85.093 256.464,84.645 255.725,83.600 256.400 M86.579 258.035 C 86.390 258.339,86.443 258.421,86.718 258.251 C 86.961 258.100,87.363 258.357,87.611 258.820 C 87.879 259.322,88.300 259.571,88.651 259.436 C 89.027 259.292,89.139 259.376,88.959 259.666 C 88.793 259.935,88.853 260.015,89.104 259.859 C 89.339 259.714,89.592 259.752,89.666 259.945 C 89.740 260.137,90.249 260.434,90.797 260.605 C 91.690 260.883,91.737 260.847,91.248 260.258 C 90.948 259.896,90.454 259.600,90.151 259.600 C 89.848 259.600,89.600 259.240,89.600 258.800 C 89.600 258.278,89.333 258.000,88.833 258.000 C 88.411 258.000,87.799 257.898,87.473 257.773 C 87.147 257.648,86.745 257.766,86.579 258.035 M140.000 261.641 C 140.550 261.855,141.239 262.339,141.531 262.715 C 142.021 263.348,142.052 263.339,141.931 262.600 C 141.788 261.727,141.046 261.258,139.800 261.253 C 139.139 261.251,139.173 261.318,140.000 261.641 M143.509 264.816 C 144.010 265.017,144.583 265.590,144.784 266.091 C 145.043 266.735,145.157 266.804,145.175 266.329 C 145.207 265.464,144.136 264.393,143.271 264.425 C 142.796 264.443,142.865 264.557,143.509 264.816 M310.480 322.880 C 310.216 323.144,309.997 323.639,309.994 323.980 C 309.990 324.341,309.865 324.433,309.694 324.200 C 309.154 323.466,308.445 323.595,308.600 324.400 C 308.683 324.831,308.582 325.288,308.375 325.415 C 307.878 325.723,307.894 326.400,308.400 326.400 C 308.620 326.400,308.755 326.179,308.700 325.909 C 308.645 325.639,309.185 325.157,309.900 324.837 C 311.177 324.266,311.635 323.600,310.751 323.600 C 310.441 323.600,310.456 323.415,310.800 323.000 C 311.394 322.284,311.162 322.198,310.480 322.880 M145.200 324.210 C 145.200 324.534,145.545 324.800,145.967 324.800 C 146.388 324.800,146.807 325.020,146.897 325.290 C 146.986 325.559,147.169 325.361,147.303 324.850 C 147.436 324.339,147.449 324.017,147.332 324.135 C 147.214 324.253,146.686 324.185,146.159 323.984 C 145.416 323.702,145.200 323.752,145.200 324.210 M147.741 325.504 C 147.886 325.739,147.788 326.004,147.523 326.092 C 147.218 326.194,147.291 326.349,147.720 326.514 C 148.500 326.813,148.687 325.825,147.938 325.362 C 147.665 325.193,147.584 325.251,147.741 325.504 M156.133 333.800 C 156.133 334.130,156.361 334.400,156.640 334.400 C 156.918 334.400,157.251 334.730,157.379 335.133 C 157.507 335.537,157.903 335.867,158.259 335.867 C 158.855 335.867,158.855 335.829,158.259 335.394 C 157.903 335.134,157.730 334.804,157.873 334.660 C 158.016 334.517,157.913 334.400,157.643 334.400 C 157.373 334.400,157.281 334.192,157.438 333.938 C 157.615 333.652,157.548 333.585,157.262 333.762 C 157.008 333.919,156.800 333.857,156.800 333.624 C 156.800 333.391,156.650 333.200,156.467 333.200 C 156.283 333.200,156.133 333.470,156.133 333.800 M298.953 333.523 C 299.083 333.734,298.791 334.422,298.305 335.053 C 297.819 335.684,297.703 335.977,298.047 335.703 C 298.392 335.430,298.792 335.325,298.937 335.470 C 299.082 335.615,299.200 335.513,299.200 335.243 C 299.200 334.973,299.361 334.852,299.558 334.974 C 299.755 335.096,300.007 334.959,300.118 334.669 C 300.229 334.379,299.959 333.917,299.518 333.642 C 299.077 333.366,298.823 333.313,298.953 333.523 M124.000 335.000 C 124.578 335.697,125.200 335.788,125.200 335.176 C 125.200 334.943,125.020 334.864,124.800 335.000 C 124.580 335.136,124.400 335.057,124.400 334.824 C 124.400 334.591,124.198 334.400,123.951 334.400 C 123.641 334.400,123.656 334.585,124.000 335.000 M331.600 335.186 C 331.600 335.384,331.105 335.626,330.500 335.723 C 329.753 335.843,329.891 335.888,330.928 335.866 C 332.558 335.830,333.181 335.432,332.198 335.054 C 331.869 334.928,331.600 334.988,331.600 335.186 M325.700 345.023 C 325.111 345.663,325.062 346.000,325.557 346.000 C 325.898 346.000,326.537 344.796,326.309 344.583 C 326.249 344.527,325.975 344.725,325.700 345.023 M323.700 347.465 C 323.425 347.576,323.200 347.854,323.200 348.082 C 323.200 348.358,323.378 348.350,323.730 348.058 C 324.097 347.753,324.387 347.747,324.676 348.036 C 324.966 348.326,325.167 348.262,325.334 347.827 C 325.576 347.196,324.795 347.023,323.700 347.465 M133.859 348.713 C 133.933 348.830,133.812 349.144,133.592 349.410 C 133.139 349.956,133.548 350.365,135.286 351.107 C 135.966 351.397,136.460 351.426,136.610 351.184 C 136.826 350.834,135.169 349.950,134.486 350.052 C 133.709 350.168,133.464 349.947,133.997 349.611 C 134.415 349.346,134.464 349.124,134.159 348.867 C 133.920 348.665,133.785 348.596,133.859 348.713 M322.256 348.678 C 321.805 349.128,321.981 349.600,322.600 349.600 C 322.930 349.600,323.200 349.431,323.200 349.224 C 323.200 348.719,322.575 348.358,322.256 348.678 M320.474 350.439 C 319.965 350.634,319.657 350.968,319.789 351.182 C 320.010 351.539,321.693 351.059,322.495 350.409 C 322.965 350.028,321.492 350.050,320.474 350.439 M315.200 354.191 L 314.200 354.753 315.381 354.634 C 316.030 354.568,316.630 354.309,316.714 354.057 C 316.914 353.457,316.429 353.499,315.200 354.191 M145.600 355.880 C 145.600 356.510,147.171 358.295,147.187 357.683 C 147.194 357.399,146.840 356.780,146.400 356.308 C 145.960 355.836,145.600 355.643,145.600 355.880 M309.856 356.443 C 309.470 356.894,309.223 357.470,309.308 357.723 C 309.392 357.976,309.787 357.687,310.185 357.079 C 311.061 355.743,310.833 355.302,309.856 356.443 " stroke="none" fill="#454545" fill-rule="evenodd"></path><path id="path4" d="M146.943 46.203 C 146.818 46.529,146.555 46.696,146.358 46.574 C 146.161 46.452,145.979 46.588,145.954 46.876 C 145.928 47.164,145.883 47.670,145.854 48.000 C 145.815 48.437,145.140 48.654,143.371 48.800 C 140.864 49.006,139.807 49.621,139.540 51.028 C 139.442 51.545,138.997 51.845,138.197 51.935 C 137.538 52.010,136.783 52.250,136.518 52.470 C 136.252 52.689,135.847 52.753,135.618 52.611 C 135.388 52.469,135.200 52.563,135.200 52.819 C 135.200 53.076,134.939 53.186,134.620 53.063 C 134.233 52.915,134.115 53.033,134.263 53.420 C 134.386 53.739,134.276 54.000,134.019 54.000 C 133.763 54.000,133.652 54.160,133.773 54.356 C 133.894 54.552,133.545 55.006,132.997 55.365 C 132.448 55.725,132.000 55.884,132.000 55.720 C 132.000 55.308,130.626 57.303,130.569 57.799 C 130.543 58.020,130.480 58.290,130.428 58.400 C 130.376 58.510,130.247 59.137,130.141 59.793 C 129.944 61.010,129.316 61.692,128.600 61.465 C 128.115 61.311,127.015 62.407,126.960 63.100 C 126.938 63.375,126.893 64.500,126.860 65.600 C 126.809 67.313,126.685 67.600,126.000 67.600 C 125.560 67.600,125.200 67.791,125.200 68.024 C 125.200 68.257,125.039 68.348,124.842 68.226 C 123.938 67.667,123.811 71.374,123.713 101.400 C 123.598 136.120,123.543 135.207,125.773 135.598 C 126.532 135.731,126.964 136.072,127.040 136.600 C 127.276 138.231,128.416 138.495,135.055 138.455 C 138.499 138.434,141.369 138.365,141.432 138.301 C 141.496 138.238,141.618 137.658,141.705 137.013 C 141.842 135.992,144.000 134.579,144.000 135.511 C 144.000 135.644,144.264 135.404,144.587 134.976 C 145.090 134.311,145.176 130.198,145.187 106.300 C 145.201 76.026,145.052 78.218,147.096 78.292 C 147.368 78.302,147.488 78.142,147.361 77.937 C 147.235 77.733,147.370 77.277,147.662 76.925 C 147.955 76.573,148.215 75.760,148.241 75.119 C 148.291 73.866,148.653 73.333,149.590 73.129 C 150.510 72.928,151.115 72.219,151.264 71.165 C 151.379 70.346,151.633 70.193,152.945 70.151 C 153.794 70.125,154.646 69.855,154.839 69.551 C 155.106 69.129,155.189 69.121,155.194 69.516 C 155.199 69.937,155.303 69.937,155.758 69.516 C 156.065 69.232,156.254 68.897,156.179 68.771 C 155.212 67.165,153.812 67.196,228.242 67.196 C 299.580 67.196,299.600 67.196,299.600 68.215 C 299.600 68.914,302.235 70.209,303.600 70.181 C 304.754 70.158,305.185 70.626,305.194 71.913 C 305.200 72.833,305.369 72.953,307.217 73.353 C 308.241 73.575,308.413 74.117,308.530 77.474 C 308.546 77.955,308.704 78.259,308.880 78.151 C 309.056 78.042,309.200 78.131,309.200 78.349 C 309.200 78.566,309.605 78.802,310.100 78.872 L 311.000 79.000 311.101 201.661 L 311.201 324.321 310.035 324.728 C 309.393 324.952,308.799 325.065,308.714 324.981 C 308.629 324.896,308.542 325.226,308.521 325.713 C 308.317 330.278,308.365 330.192,306.100 330.107 C 305.825 330.097,305.600 330.429,305.600 330.844 C 305.600 331.260,305.426 331.600,305.213 331.600 C 304.999 331.600,304.928 331.868,305.054 332.197 C 305.333 332.924,304.823 333.123,302.060 333.361 C 300.216 333.520,298.610 334.000,299.921 334.000 C 300.171 334.000,300.272 334.269,300.146 334.598 C 300.019 334.926,299.774 335.107,299.600 335.000 C 299.426 334.893,299.181 335.074,299.054 335.402 C 298.638 336.488,157.745 336.287,157.400 335.200 C 157.260 334.760,156.888 334.400,156.573 334.400 C 156.258 334.400,156.045 334.197,156.100 333.948 C 156.160 333.676,155.407 333.431,154.200 333.332 C 151.576 333.116,151.070 332.915,151.346 332.197 C 151.472 331.868,151.401 331.600,151.187 331.600 C 150.974 331.600,150.800 331.250,150.800 330.823 C 150.800 330.284,150.575 330.089,150.066 330.187 C 148.909 330.410,148.445 329.894,148.335 328.261 C 148.278 327.410,147.963 326.588,147.616 326.385 C 147.244 326.167,147.193 326.020,147.487 326.012 C 147.766 326.005,147.871 325.729,147.732 325.366 C 147.536 324.856,147.423 324.837,147.150 325.266 C 146.897 325.666,146.811 325.674,146.806 325.300 C 146.803 325.025,146.440 324.800,146.000 324.800 C 145.207 324.800,145.200 324.533,145.200 296.026 C 145.200 265.003,145.239 265.561,142.985 264.620 C 142.192 264.288,141.652 263.840,141.786 263.623 C 142.791 261.996,139.274 261.067,132.833 261.259 C 127.843 261.408,127.209 261.623,127.089 263.208 C 127.040 263.870,126.611 264.296,125.593 264.696 C 123.676 265.449,123.808 262.840,123.804 300.000 C 123.800 331.448,123.918 335.545,124.812 334.993 C 125.025 334.861,125.200 334.943,125.200 335.176 C 125.200 335.409,125.560 335.600,126.000 335.600 C 126.669 335.600,126.805 335.878,126.833 337.300 C 126.898 340.584,127.498 342.089,128.604 341.739 C 129.447 341.471,130.054 342.348,130.125 343.938 C 130.166 344.851,130.346 345.598,130.524 345.599 C 130.702 345.599,130.745 345.765,130.621 345.966 C 130.497 346.167,130.621 346.423,130.898 346.534 C 131.292 346.693,131.289 346.744,130.884 346.768 C 130.463 346.794,130.463 346.902,130.884 347.356 C 131.258 347.758,131.481 347.786,131.694 347.456 C 131.902 347.133,131.990 347.153,131.994 347.524 C 131.997 347.812,132.180 347.936,132.400 347.800 C 132.620 347.664,132.800 347.722,132.800 347.930 C 132.800 348.137,133.183 348.407,133.652 348.529 C 134.221 348.678,134.424 348.959,134.265 349.376 C 134.133 349.719,134.217 350.000,134.452 350.000 C 134.687 350.000,135.446 350.260,136.140 350.577 C 136.833 350.894,137.850 351.209,138.400 351.277 C 139.108 351.364,139.440 351.682,139.536 352.365 C 139.792 354.173,140.719 354.571,145.124 354.760 C 145.632 354.782,145.957 354.946,145.846 355.125 C 145.514 355.662,147.327 357.425,148.400 357.608 C 148.950 357.702,185.250 357.784,229.068 357.789 L 308.735 357.800 309.745 356.625 C 310.300 355.979,310.664 355.304,310.554 355.125 C 310.443 354.946,310.768 354.777,311.276 354.748 C 311.784 354.719,312.653 354.669,313.206 354.635 C 315.177 354.517,316.747 353.587,316.877 352.461 C 316.969 351.670,317.255 351.369,318.000 351.277 C 318.550 351.209,319.567 350.894,320.260 350.577 C 320.954 350.260,321.729 350.000,321.984 350.000 C 322.239 350.000,322.327 349.806,322.181 349.569 C 321.828 348.997,323.483 347.481,324.067 347.841 C 324.348 348.015,324.414 347.946,324.238 347.662 C 324.069 347.388,324.207 347.200,324.576 347.200 C 325.156 347.200,325.390 346.708,325.226 345.837 C 325.189 345.637,325.359 345.349,325.604 345.197 C 325.850 345.046,326.147 344.309,326.265 343.561 C 326.480 342.194,327.059 341.505,327.796 341.739 C 328.889 342.085,329.448 340.671,329.549 337.300 C 329.595 335.767,329.698 335.600,330.600 335.600 C 331.150 335.600,331.600 335.409,331.600 335.176 C 331.600 334.943,331.760 334.851,331.955 334.972 C 332.745 335.461,332.789 328.457,332.786 201.600 C 332.784 74.614,332.741 67.742,331.955 68.228 C 331.760 68.349,331.600 68.257,331.600 68.024 C 331.600 67.791,331.150 67.600,330.600 67.600 C 329.675 67.600,329.596 67.451,329.540 65.600 C 329.507 64.500,329.462 63.375,329.440 63.100 C 329.385 62.407,328.285 61.311,327.800 61.465 C 327.116 61.682,326.458 61.029,326.316 59.993 C 326.241 59.447,326.039 58.775,325.866 58.500 C 325.694 58.225,325.688 57.775,325.853 57.500 C 326.057 57.160,325.937 57.176,325.477 57.549 C 324.894 58.022,324.800 58.008,324.800 57.449 C 324.800 57.092,324.485 56.786,324.100 56.768 C 323.669 56.749,323.595 56.658,323.908 56.532 C 324.252 56.394,324.090 56.071,323.404 55.532 C 322.848 55.094,322.495 54.570,322.620 54.368 C 322.745 54.166,322.637 54.000,322.381 54.000 C 322.124 54.000,322.014 53.739,322.137 53.420 C 322.285 53.033,322.167 52.915,321.780 53.063 C 321.461 53.186,321.200 53.092,321.200 52.855 C 321.200 52.619,320.948 52.522,320.640 52.640 C 320.333 52.758,319.962 52.662,319.817 52.427 C 319.672 52.192,319.034 52.000,318.400 52.000 C 317.108 52.000,316.834 51.718,316.714 50.265 C 316.668 49.711,316.488 49.345,316.315 49.452 C 316.142 49.560,316.000 49.499,316.000 49.318 C 316.000 49.137,314.882 48.933,313.515 48.865 C 310.809 48.731,310.349 48.582,310.437 47.870 C 310.556 46.907,310.389 46.360,310.042 46.574 C 309.845 46.696,309.581 46.527,309.455 46.198 C 309.108 45.294,147.290 45.299,146.943 46.203 M91.100 140.071 C 90.437 140.309,90.000 140.762,90.000 141.210 C 90.000 142.152,89.676 142.343,87.866 142.465 C 87.015 142.522,86.400 142.773,86.400 143.062 C 86.400 143.336,86.085 143.763,85.700 144.010 C 85.042 144.433,85.042 144.447,85.695 144.245 C 86.114 144.115,86.352 144.222,86.295 144.514 C 86.125 145.384,85.458 145.557,84.922 144.871 C 84.436 144.249,84.416 144.251,84.642 144.900 C 84.824 145.422,84.672 145.600,84.043 145.600 C 83.579 145.600,83.221 145.735,83.247 145.900 C 83.273 146.065,83.251 146.335,83.197 146.500 C 83.144 146.665,83.078 147.205,83.050 147.700 C 83.015 148.335,82.735 148.615,82.100 148.650 C 81.605 148.678,81.065 148.744,80.900 148.797 C 80.735 148.851,80.465 148.873,80.300 148.847 C 80.135 148.821,80.045 149.025,80.100 149.300 C 80.158 149.590,79.827 149.780,79.309 149.753 C 78.819 149.727,78.488 149.819,78.574 149.957 C 78.659 150.096,78.475 150.556,78.165 150.981 C 77.854 151.405,77.599 151.584,77.597 151.376 C 77.596 151.169,77.237 151.540,76.800 152.200 C 76.363 152.860,76.004 153.168,76.003 152.884 C 76.000 152.464,75.898 152.464,75.450 152.882 C 75.148 153.165,74.982 153.608,75.081 153.867 C 75.181 154.127,74.900 154.532,74.458 154.769 C 74.016 155.006,73.537 155.569,73.393 156.021 C 73.201 156.626,73.000 156.732,72.630 156.425 C 71.921 155.836,71.505 156.400,72.103 157.138 C 72.521 157.653,72.486 157.707,71.879 157.479 C 71.476 157.328,71.259 157.371,71.386 157.577 C 71.511 157.780,71.252 158.199,70.809 158.509 C 70.367 158.818,70.124 159.191,70.269 159.336 C 70.414 159.481,70.323 159.600,70.067 159.600 C 69.810 159.600,69.595 159.375,69.588 159.100 C 69.581 158.824,69.392 158.915,69.166 159.303 C 68.941 159.690,68.867 160.185,69.002 160.403 C 69.137 160.621,69.054 160.800,68.818 160.800 C 67.786 160.800,64.400 164.807,64.400 166.029 C 64.400 166.773,64.238 167.147,63.982 166.989 C 63.753 166.847,63.303 166.949,62.982 167.215 C 62.662 167.480,62.400 167.564,62.400 167.400 C 62.400 167.236,62.130 167.326,61.800 167.600 C 61.470 167.874,61.200 168.466,61.200 168.916 C 61.200 169.365,61.083 169.616,60.940 169.473 C 60.796 169.330,60.451 169.525,60.172 169.906 C 59.893 170.288,59.515 170.616,59.332 170.635 C 58.431 170.728,57.672 171.323,57.853 171.793 C 57.978 172.120,57.779 172.297,57.327 172.260 C 56.853 172.221,56.620 172.450,56.659 172.920 C 56.691 173.315,56.518 173.573,56.275 173.492 C 56.031 173.410,55.336 173.852,54.730 174.472 C 53.607 175.620,52.922 175.974,53.438 175.138 C 53.616 174.850,53.548 174.785,53.255 174.966 C 52.998 175.125,52.891 175.423,53.017 175.628 C 53.144 175.832,53.053 176.000,52.815 176.000 C 52.577 176.000,52.180 176.444,51.933 176.987 C 51.685 177.531,51.329 177.880,51.142 177.764 C 50.954 177.648,50.800 177.833,50.800 178.176 C 50.800 178.555,50.446 178.802,49.900 178.806 C 49.319 178.810,49.173 178.922,49.488 179.123 C 49.844 179.349,49.709 179.722,48.988 180.499 C 48.445 181.085,48.000 181.753,48.000 181.983 C 48.000 182.212,47.796 182.400,47.547 182.400 C 46.993 182.400,45.201 184.425,45.200 185.051 C 45.200 185.300,44.673 185.721,44.028 185.988 C 43.358 186.266,42.579 187.058,42.209 187.837 C 41.854 188.587,41.301 189.222,40.981 189.250 C 40.662 189.278,40.175 189.322,39.900 189.350 C 39.625 189.378,39.377 189.625,39.350 189.900 C 39.323 190.175,39.275 190.715,39.244 191.100 C 39.199 191.660,39.118 191.689,38.837 191.246 C 38.557 190.803,38.394 190.864,38.029 191.546 C 37.778 192.016,37.346 192.400,37.071 192.400 C 36.796 192.400,36.535 192.715,36.491 193.100 C 36.289 194.891,36.078 195.363,35.366 195.622 C 34.945 195.775,34.474 195.827,34.320 195.739 C 33.528 195.283,33.132 197.509,33.359 201.149 C 33.490 203.267,33.610 205.311,33.625 205.692 C 33.639 206.072,33.865 206.342,34.125 206.292 C 34.395 206.240,34.541 206.537,34.464 206.978 C 34.348 207.648,34.418 207.683,34.964 207.230 C 35.314 206.939,35.600 206.874,35.600 207.083 C 35.600 207.293,36.050 207.706,36.600 208.000 C 37.150 208.294,37.600 208.754,37.600 209.021 C 37.600 209.288,37.915 209.623,38.300 209.764 C 39.644 210.259,41.796 211.562,41.300 211.581 C 40.696 211.604,40.621 212.800,41.224 212.800 C 41.457 212.800,41.512 212.575,41.347 212.300 C 41.143 211.960,41.263 211.976,41.723 212.349 C 42.095 212.651,42.400 213.125,42.400 213.402 C 42.400 213.680,42.760 214.001,43.200 214.116 C 43.640 214.231,44.000 214.612,44.000 214.963 C 44.000 215.313,44.236 215.600,44.525 215.600 C 45.088 215.600,46.800 217.695,46.800 218.384 C 46.800 218.613,47.070 218.800,47.400 218.800 C 47.730 218.800,48.000 218.609,48.000 218.376 C 48.000 218.143,47.792 218.081,47.538 218.238 C 47.252 218.415,47.185 218.348,47.362 218.062 C 47.807 217.342,47.995 217.491,48.665 219.093 C 49.008 219.915,49.632 220.827,50.051 221.121 C 50.470 221.414,50.710 221.822,50.583 222.027 C 50.375 222.364,50.923 222.570,51.700 222.447 C 51.865 222.421,51.955 222.625,51.900 222.900 C 51.845 223.175,52.070 223.340,52.400 223.267 C 52.730 223.193,52.871 223.262,52.714 223.419 C 52.293 223.840,53.133 225.200,53.814 225.200 C 54.136 225.200,54.400 225.377,54.400 225.592 C 54.400 225.808,54.850 226.098,55.400 226.236 C 56.118 226.416,56.400 226.757,56.400 227.443 C 56.400 228.027,56.634 228.400,57.000 228.400 C 57.330 228.400,57.600 228.551,57.600 228.736 C 57.600 228.920,58.050 229.277,58.600 229.527 C 59.150 229.778,59.600 230.236,59.600 230.545 C 59.600 230.854,59.960 231.201,60.400 231.316 C 60.840 231.431,61.200 231.812,61.200 232.163 C 61.200 232.513,61.470 232.800,61.800 232.800 C 62.133 232.800,62.400 233.156,62.400 233.600 C 62.400 234.177,62.667 234.400,63.357 234.400 C 64.043 234.400,64.384 234.682,64.564 235.400 C 64.702 235.950,64.992 236.400,65.208 236.400 C 65.423 236.400,65.600 236.670,65.600 237.000 C 65.600 237.330,65.881 237.600,66.224 237.600 C 66.598 237.600,66.732 237.787,66.558 238.068 C 66.364 238.382,66.486 238.453,66.930 238.282 C 67.337 238.126,67.554 238.215,67.495 238.514 C 67.443 238.781,67.625 238.955,67.900 238.900 C 68.175 238.845,68.379 238.935,68.353 239.100 C 68.226 239.903,68.448 240.390,68.900 240.300 C 69.175 240.245,69.355 240.425,69.300 240.700 C 69.210 241.152,69.697 241.374,70.500 241.247 C 70.665 241.221,70.800 241.380,70.800 241.600 C 70.800 241.820,71.070 242.000,71.400 242.000 C 71.773 242.000,72.000 242.378,72.000 243.000 C 72.000 243.622,72.227 244.000,72.600 244.000 C 72.930 244.000,73.200 244.168,73.200 244.373 C 73.200 244.578,73.584 244.868,74.053 245.017 C 74.653 245.207,74.759 245.378,74.410 245.594 C 74.058 245.812,74.042 245.979,74.357 246.174 C 74.601 246.324,74.800 246.807,74.800 247.247 C 74.800 247.732,74.975 247.939,75.245 247.772 C 75.489 247.621,75.847 247.746,76.039 248.049 C 76.306 248.471,76.389 248.479,76.394 248.084 C 76.399 247.663,76.502 247.663,76.956 248.084 C 77.358 248.458,77.386 248.681,77.056 248.894 C 76.738 249.099,76.764 249.190,77.143 249.194 C 77.460 249.197,77.590 249.449,77.455 249.800 C 77.300 250.204,77.474 250.400,77.989 250.400 C 78.409 250.400,78.876 250.599,79.026 250.843 C 79.217 251.151,79.404 251.121,79.644 250.743 C 79.917 250.311,79.989 250.333,79.994 250.851 C 79.997 251.209,80.272 251.728,80.605 252.004 C 81.065 252.386,81.101 252.637,80.756 253.053 C 80.399 253.483,80.466 253.600,81.071 253.600 C 81.494 253.600,82.056 253.816,82.320 254.080 C 82.693 254.453,82.806 254.431,82.825 253.980 C 82.839 253.661,83.047 253.850,83.287 254.400 C 83.528 254.950,83.688 255.628,83.643 255.906 C 83.599 256.185,83.796 256.365,84.081 256.306 C 84.398 256.241,84.547 256.503,84.464 256.978 C 84.348 257.648,84.418 257.683,84.964 257.230 C 85.422 256.850,85.600 256.834,85.600 257.175 C 85.600 257.435,85.780 257.536,86.000 257.400 C 86.220 257.264,86.400 257.323,86.400 257.532 C 86.400 257.740,86.625 257.903,86.900 257.893 C 88.935 257.817,89.600 258.040,89.600 258.800 C 89.600 259.240,89.848 259.600,90.151 259.600 C 90.454 259.600,90.912 259.853,91.168 260.162 C 91.548 260.620,92.649 260.744,93.100 260.381 C 93.155 260.336,93.335 260.269,93.500 260.230 C 95.086 259.862,95.503 259.515,95.298 258.733 C 95.140 258.128,95.236 257.948,95.639 258.092 C 96.556 258.416,98.400 257.264,98.400 256.366 C 98.400 255.919,98.575 255.661,98.788 255.793 C 99.002 255.925,99.291 255.577,99.431 255.019 C 99.571 254.462,99.846 254.105,100.043 254.226 C 100.239 254.348,100.400 254.246,100.400 254.000 C 100.400 253.754,100.569 253.657,100.776 253.785 C 100.982 253.913,101.154 253.698,101.157 253.309 C 101.161 252.919,101.192 251.610,101.228 250.400 C 101.315 247.441,100.618 245.861,99.200 245.797 C 98.602 245.770,98.063 245.102,98.248 244.618 C 98.527 243.892,96.903 242.275,96.175 242.554 C 95.543 242.797,94.626 241.405,95.010 240.784 C 95.273 240.359,92.811 239.146,92.312 239.455 C 92.149 239.555,91.897 238.895,91.752 237.987 C 91.538 236.655,91.348 236.372,90.766 236.525 C 89.878 236.757,88.708 235.534,88.646 234.309 C 88.621 233.809,88.330 233.376,88.000 233.346 C 87.670 233.317,87.034 233.272,86.587 233.246 C 86.011 233.213,85.749 232.892,85.687 232.140 C 85.582 230.872,84.853 229.894,84.200 230.145 C 83.512 230.409,83.042 229.958,82.590 228.600 C 82.307 227.748,81.816 227.289,80.896 227.017 C 80.133 226.792,79.600 226.371,79.600 225.994 C 79.600 224.932,78.667 224.007,77.500 223.914 C 76.436 223.828,76.230 223.569,76.372 222.491 C 76.471 221.741,75.210 220.629,74.244 220.613 C 73.781 220.606,73.394 220.420,73.382 220.200 C 73.297 218.597,72.198 217.498,70.600 217.420 C 70.380 217.409,70.139 216.966,70.064 216.435 C 69.906 215.317,69.044 214.331,68.309 214.428 C 67.240 214.568,66.972 214.368,66.889 213.364 C 66.771 211.944,66.566 211.700,65.247 211.410 C 64.399 211.224,64.010 210.829,63.738 209.880 C 63.440 208.838,63.114 208.554,61.986 208.353 C 61.224 208.217,104.700 208.073,158.600 208.034 C 261.399 207.959,260.127 207.971,261.192 207.008 C 261.561 206.673,262.074 206.400,262.331 206.400 C 262.589 206.400,262.800 206.209,262.800 205.976 C 262.800 205.743,262.950 205.645,263.133 205.759 C 263.594 206.044,263.645 205.644,263.824 200.300 C 263.942 196.772,263.859 195.598,263.491 195.594 C 263.135 195.589,263.125 195.507,263.456 195.294 C 263.893 195.012,262.941 193.708,262.410 193.860 C 262.294 193.893,262.228 193.803,262.262 193.660 C 262.296 193.517,262.071 193.168,261.762 192.884 C 261.415 192.565,261.200 192.533,261.200 192.798 C 261.200 193.099,260.968 193.104,260.426 192.814 C 259.899 192.532,227.974 192.400,160.146 192.400 C 71.236 192.400,56.880 192.273,62.400 191.534 C 63.132 191.436,63.503 191.051,63.783 190.100 C 64.133 188.911,64.759 188.545,66.093 188.750 C 66.254 188.775,66.494 188.301,66.626 187.698 C 67.053 185.752,67.160 185.600,68.107 185.600 C 69.291 185.600,70.000 184.896,70.000 183.720 C 70.000 183.116,70.240 182.795,70.700 182.786 C 71.524 182.769,73.136 181.931,73.174 181.500 C 73.188 181.335,73.200 180.840,73.200 180.400 C 73.200 179.889,73.467 179.600,73.938 179.600 C 74.796 179.600,76.000 178.402,76.000 177.549 C 76.000 176.767,76.801 176.000,77.618 176.000 C 78.443 176.000,79.600 174.755,79.600 173.869 C 79.600 173.467,79.919 173.200,80.400 173.200 C 80.840 173.200,81.335 173.188,81.500 173.174 C 81.931 173.136,82.769 171.524,82.786 170.700 C 82.795 170.240,83.116 170.000,83.720 170.000 C 84.896 170.000,85.600 169.291,85.600 168.107 C 85.600 167.160,85.752 167.053,87.698 166.626 C 88.301 166.494,88.775 166.254,88.750 166.093 C 88.545 164.759,88.911 164.133,90.100 163.783 C 91.095 163.490,91.447 163.129,91.600 162.243 C 91.795 161.116,92.240 160.694,93.719 160.234 C 94.114 160.111,94.627 159.468,94.858 158.805 C 95.127 158.035,95.553 157.600,96.039 157.600 C 96.458 157.600,96.935 157.573,97.100 157.540 C 97.669 157.425,98.375 156.198,98.387 155.300 C 98.398 154.510,98.675 154.338,99.814 154.414 C 100.400 154.453,101.084 153.233,101.171 151.992 C 101.424 148.399,101.232 146.213,100.623 145.768 C 100.281 145.517,100.000 145.017,100.000 144.656 C 100.000 144.295,99.820 144.000,99.600 144.000 C 98.993 144.000,96.001 140.969,95.994 140.347 C 95.989 139.904,95.919 139.909,95.624 140.374 C 95.333 140.835,95.143 140.851,94.665 140.454 C 93.829 139.760,92.392 139.606,91.100 140.071 " stroke="none" fill="#6c6c6c" fill-rule="evenodd"></path></g></svg>